<svg width="240" height="55" viewBox="0 0 240 55" fill="none" xmlns="http://www.w3.org/2000/svg">
<path d="M38.1034 54.7491C29.2524 54.7491 21.9946 53.7329 16.33 51.7004C10.7539 49.617 6.63822 46.7715 3.98293 43.1637C1.32764 39.556 0 35.3639 0 30.5875V0.251953H14.073V30.6637C14.073 33.6617 14.8254 36.431 16.33 38.9716C17.8347 41.5123 20.3572 43.5448 23.8976 45.0692C27.438 46.5936 32.2175 47.3558 38.2361 47.3558C44.3433 47.3558 49.1228 46.5936 52.5747 45.0692C56.0266 43.5448 58.4606 41.5123 59.8767 38.9716C61.2929 36.431 62.001 33.6617 62.001 30.6637V0.251953H76.2068V30.5875C76.2068 35.3131 74.8791 39.5052 72.2238 43.1637C69.5685 46.7715 65.4528 49.617 59.8767 51.7004C54.3006 53.7329 47.0429 54.7491 38.1034 54.7491Z" fill="#0C4A6E" style="fill:#0C4A6E;fill:color(display-p3 0.0471 0.2902 0.4314);fill-opacity:1;"/>
<path d="M119.717 0.251099C110.866 0.251099 103.608 1.26736 97.9433 3.29989C92.3672 5.38324 88.2515 8.22878 85.5962 11.8365C82.9409 15.4443 81.6133 19.6363 81.6133 24.4128V54.7483H95.6863V24.3366C95.6863 21.3386 96.4386 18.5693 97.9433 16.0286C99.448 13.4879 101.97 11.4554 105.511 9.93102C109.051 8.40662 113.831 7.64442 119.849 7.64442C125.957 7.64442 130.736 8.40662 134.188 9.93102C137.64 11.4554 140.074 13.4879 141.49 16.0286C142.906 18.5693 143.614 21.3386 143.614 24.3366V54.7483H157.82V24.4128C157.82 19.6872 156.492 15.4951 153.837 11.8365C151.182 8.22878 147.066 5.38324 141.49 3.29989C135.914 1.26736 128.656 0.251099 119.717 0.251099Z" fill="#0C4A6E" style="fill:#0C4A6E;fill:color(display-p3 0.0471 0.2902 0.4314);fill-opacity:1;"/>
<path d="M201.269 54.7492C193.089 54.7492 186.148 53.5935 180.445 51.2819C174.816 48.9201 170.539 45.6789 167.612 41.5583C164.686 37.4377 163.222 32.7644 163.222 27.5383C163.222 22.2619 164.686 17.5634 167.612 13.4429C170.539 9.32227 174.854 6.1062 180.557 3.79465C186.26 1.43285 193.202 0.251953 201.382 0.251953C209.636 0.251953 216.578 1.40773 222.206 3.71928C227.834 6.03083 232.112 9.24689 235.038 13.3675C237.965 17.4881 239.429 22.1865 239.429 27.4629C239.429 32.689 237.965 37.3624 235.038 41.483C232.112 45.6035 227.797 48.8447 222.094 51.2065C216.465 53.5683 209.524 54.7492 201.269 54.7492ZM201.382 47.4377C207.385 47.4377 212.3 46.5081 216.128 44.6488C219.955 42.7895 222.769 40.3523 224.57 37.3372C226.371 34.3222 227.272 31.0559 227.272 27.5383C227.272 24.875 226.746 22.3373 225.696 19.9252C224.72 17.5132 223.182 15.3775 221.08 13.5182C218.979 11.6589 216.278 10.2017 212.976 9.14639C209.674 8.09112 205.809 7.56348 201.382 7.56348C195.453 7.56348 190.538 8.49313 186.636 10.3524C182.808 12.2117 179.957 14.6489 178.081 17.6639C176.205 20.679 175.267 23.9705 175.267 27.5383C175.267 31.0559 176.167 34.3222 177.968 37.3372C179.844 40.3523 182.696 42.7895 186.523 44.6488C190.425 46.5081 195.378 47.4377 201.382 47.4377Z" fill="#0C4A6E" style="fill:#0C4A6E;fill:color(display-p3 0.0471 0.2902 0.4314);fill-opacity:1;"/>
</svg>
