<svg width="120" height="121" viewBox="0 0 120 121" fill="none" xmlns="http://www.w3.org/2000/svg">
<g clip-path="url(#clip0_7540_13629)">
<path d="M105 105.749V120.749H120V105.749H115V100.749H110V105.749H105ZM115 110.749V115.749H110V110.749H115ZM0 120.749H40V80.749H0V120.749ZM5 85.749H35V115.749H5V85.749ZM105 100.749V95.749H110V100.749H105ZM10 90.749H30V110.749H10V90.749ZM50 75.749V85.749H45V75.749H50ZM60 35.749H65V40.749H60V35.749ZM65 30.749H70V35.749H65V30.749ZM70 40.749V35.749H75V40.749H70ZM70 30.749H75V0.749023H60V5.74902H45V10.749H60V15.749H70V30.749ZM65 10.749V5.74902H70V10.749H65ZM30 30.749H10V10.749H30V30.749ZM60 30.749H55V20.749H45V15.749H60V20.749H65V25.749H60V30.749ZM40 0.749023H0V40.749H40V0.749023ZM35 35.749H5V5.74902H35V35.749ZM50 35.749H45V30.749H55V40.749H50V35.749ZM35 50.749V55.749H30V50.749H35ZM110 80.749H120V95.749H115V90.749H105V95.749H100V90.749H95V85.749H100V80.749H105V85.749H110V80.749ZM90 90.749H85V95.749H80V90.749H75V85.749H80V80.749H70V75.749H65V80.749H60V85.749H50V90.749H45V120.749H70V115.749H65V105.749H60V115.749H50V110.749H55V105.749H50V100.749H65V95.749H75V105.749H70V110.749H75V120.749H80V110.749H85V115.749H90V110.749H95V100.749H100V95.749H90V90.749ZM85 105.749H80V100.749H85V105.749ZM115 75.749V65.749H120V75.749H115ZM70 100.749V105.749H65V100.749H70ZM95 115.749V110.749H100V120.749H90V115.749H95ZM80 0.749023V40.749H120V0.749023H80ZM115 35.749H85V5.74902H115V35.749ZM110 30.749H90V10.749H110V30.749ZM115 50.749H120V60.749H115V65.749H105V45.749H110V55.749H115V50.749ZM95 80.749V65.749H100V80.749H95ZM30 45.749V50.749H20V55.749H25V60.749H10V55.749H15V50.749H5V55.749H0V45.749H30ZM25 65.749V60.749H30V75.749H25V70.749H20V75.749H15V70.749H10V75.749H0V70.749H5V65.749H25ZM5 60.749V65.749H0V60.749H5ZM100 50.749H95V45.749H100V50.749ZM35 70.749H40V75.749H35V70.749ZM110 80.749H105V75.749H110V80.749ZM85 85.749V80.749H90V85.749H85ZM80 80.749H85V65.749H95V60.749H100V55.749H95V50.749H85V45.749H80V50.749H75V45.749H70V50.749H65V45.749H60V50.749H55V55.749H50V50.749H55V45.749H35V50.749H45V55.749H35V60.749H40V70.749H45V65.749H55V75.749H60V55.749H65V65.749H80V70.749H70V75.749H80V80.749ZM85 55.749H90V60.749H85V55.749ZM75 60.749H70V55.749H75V60.749Z" fill="#0F172A" style="fill:#0F172A;fill:color(display-p3 0.0588 0.0902 0.1647);fill-opacity:1;"/>
</g>
<defs>
<clipPath id="clip0_7540_13629">
<rect width="120" height="120" fill="white" style="fill:white;fill-opacity:1;" transform="translate(0 0.749023)"/>
</clipPath>
</defs>
</svg>
