<svg width="24" height="25" viewBox="0 0 24 25" fill="none" xmlns="http://www.w3.org/2000/svg">
<g clip-path="url(#clip0_7540_13619)">
<mask id="mask0_7540_13619" style="mask-type:luminance" maskUnits="userSpaceOnUse" x="0" y="0" width="24" height="25">
<path d="M24 0.749023H0V24.749H24V0.749023Z" fill="white" style="fill:white;fill-opacity:1;"/>
</mask>
<g mask="url(#mask0_7540_13619)">
<path d="M23.0155 8.08527C22.4088 6.65994 21.551 5.38134 20.442 4.27042C19.333 3.1595 18.0777 2.30011 16.655 1.69226C15.1694 1.06343 13.6002 0.749023 11.989 0.749023C10.357 0.749023 8.78776 1.06343 7.32314 1.69226C5.90035 2.30011 4.62404 3.1595 3.5151 4.27042C2.40618 5.38134 1.54832 6.65994 0.941544 8.08527C0.313849 9.55254 0 11.1246 0 12.7595C0 14.3734 0.313849 15.9455 0.941544 17.4337C1.54832 18.859 2.40618 20.1377 3.5151 21.2486C4.62404 22.3595 5.90035 23.2189 7.32314 23.8058C8.80872 24.4346 10.3779 24.749 11.989 24.749C13.6002 24.749 15.1694 24.4346 16.655 23.8058C18.0777 23.198 19.354 22.3385 20.463 21.2277C21.5719 20.1167 22.4298 18.8381 23.0366 17.4128C23.6642 15.9246 23.9781 14.3525 23.9781 12.7385C23.9781 11.1246 23.6433 9.55254 23.0155 8.08527ZM8.0136 11.6276C8.4948 9.69918 10.2524 8.29485 12.3238 8.29485H20.6513C21.1953 9.32198 21.53 10.4538 21.6556 11.6276H8.0136ZM21.6556 13.8913C21.53 15.0652 21.1743 16.1971 20.6513 17.2241H12.3238C10.2524 17.2241 8.51576 15.7988 8.0136 13.8913H21.6556ZM5.10527 5.86343C6.94652 4.0189 9.39456 3.01278 11.989 3.01278C14.5835 3.01278 17.0316 4.0189 18.8727 5.86343C18.9355 5.92632 18.9774 5.96824 19.0402 6.03112H12.3238C10.5244 6.03112 8.85056 6.72282 7.5742 8.00142C6.5699 9.00758 5.92128 10.2652 5.71205 11.6276H2.32248C2.57356 9.44774 3.53603 7.43549 5.10527 5.86343ZM11.989 22.5062C9.39456 22.5062 6.94652 21.5001 5.10527 19.6556C3.53603 18.0836 2.57356 16.0503 2.32248 13.8913H5.71205C5.94221 15.2538 6.59082 16.5115 7.5742 17.5176C8.85056 18.7962 10.5244 19.4879 12.3238 19.4879H19.0402C18.9774 19.5508 18.9355 19.5927 18.8727 19.6556C17.0316 21.5001 14.5835 22.5062 11.989 22.5062Z" fill="#0F172A" style="fill:#0F172A;fill:color(display-p3 0.0588 0.0902 0.1647);fill-opacity:1;"/>
</g>
</g>
<defs>
<clipPath id="clip0_7540_13619">
<rect width="24" height="24" fill="white" style="fill:white;fill-opacity:1;" transform="translate(0 0.749023)"/>
</clipPath>
</defs>
</svg>
